<svg width="35" height="19" viewBox="0 0 35 19" fill="none" xmlns="http://www.w3.org/2000/svg">
<path d="M1 18.25C0.883333 18.25 0.775 18.2 0.675 18.1C0.558333 18 0.5 17.8583 0.5 17.675C0.5 17.5417 0.541667 17.375 0.625 17.175C0.708333 16.975 0.858333 16.7583 1.075 16.525C1.45833 15.675 1.81667 14.9833 2.15 14.45C2.5 13.9167 2.89167 13.3417 3.325 12.725C3.10833 12.6917 2.95 12.6167 2.85 12.5C2.75 12.3667 2.7 12.2167 2.7 12.05C2.7 11.7833 2.775 11.5333 2.925 11.3C3.09167 11.05 3.24167 10.925 3.375 10.925C3.575 10.925 3.78333 10.9 4 10.85C4.23333 10.8 4.46667 10.775 4.7 10.775C5.3 9.90833 5.78333 9.19167 6.15 8.625C6.53333 8.05833 6.84167 7.6 7.075 7.25C7.30833 6.9 7.50833 6.60833 7.675 6.375C7.85833 6.14167 8.04167 5.925 8.225 5.725C8.40833 5.50833 8.63333 5.25833 8.9 4.975C9.16667 4.69167 9.51667 4.33333 9.95 3.9C9.73333 3.45 9.625 3.00833 9.625 2.575C9.625 1.975 9.8 1.48333 10.15 1.1C10.5 0.716666 10.8667 0.524999 11.25 0.524999C11.45 0.524999 11.6333 0.583333 11.8 0.7C11.9833 0.799999 12.1333 0.983332 12.25 1.25C12.7167 2.31667 13.0417 3.675 13.225 5.325C13.425 6.975 13.5583 8.725 13.625 10.575C14.875 10.675 15.7417 10.9 16.225 11.25C16.0083 11.3167 15.675 11.3917 15.225 11.475C14.775 11.5417 14.2417 11.6167 13.625 11.7C13.625 12.3667 13.6333 13.0417 13.65 13.725C13.6667 14.4083 13.675 15.0833 13.675 15.75C13.675 16.6833 13.6 17.3333 13.45 17.7C13.3167 18.0667 13.1833 18.25 13.05 18.25C12.8667 18.25 12.775 18.0833 12.775 17.75C12.775 16.6333 12.725 15.5917 12.625 14.625C12.525 13.6417 12.3833 12.725 12.2 11.875C11.3833 11.9583 10.5167 12.05 9.6 12.15C8.7 12.2333 7.8 12.3167 6.9 12.4C6 12.4833 5.16667 12.5667 4.4 12.65C3.86667 13.4833 3.33333 14.3583 2.8 15.275C2.28333 16.1917 1.78333 17.125 1.3 18.075C1.25 18.1917 1.15 18.25 1 18.25ZM5.75 10.675C6.73333 10.5917 7.76667 10.5417 8.85 10.525C9.93333 10.4917 10.9583 10.475 11.925 10.475C11.6417 9.29167 11.3333 8.25 11 7.35C10.6833 6.43333 10.4333 5.65 10.25 5C9.81667 5.43333 9.19167 6.14167 8.375 7.125C7.575 8.10833 6.7 9.29167 5.75 10.675ZM29.8537 18.2C29.237 18.1167 28.5454 17.8833 27.7787 17.5C27.0287 17.1167 26.2704 16.6667 25.5037 16.15C24.737 15.6333 24.0204 15.125 23.3537 14.625C22.687 14.1083 22.137 13.6667 21.7037 13.3C21.2704 12.9333 21.0204 12.7167 20.9537 12.65C20.687 12.3667 20.4454 12.0833 20.2287 11.8C20.012 11.5 19.9037 11.2083 19.9037 10.925C19.9037 10.7417 19.9537 10.5667 20.0537 10.4C20.137 10.2667 20.412 9.96667 20.8787 9.5C21.362 9.03333 21.9787 8.48333 22.7287 7.85C23.4787 7.2 24.3037 6.53333 25.2037 5.85C26.1037 5.16667 27.0204 4.525 27.9537 3.925C28.887 3.325 29.7787 2.84167 30.6287 2.475C31.4954 2.09167 32.2454 1.9 32.8787 1.9C33.212 1.9 33.5037 2.04167 33.7537 2.325C34.0204 2.60833 34.2287 2.94167 34.3787 3.325C34.5454 3.69167 34.6287 4.01667 34.6287 4.3C34.6287 4.65 34.512 4.825 34.2787 4.825C32.712 4.825 31.2454 5.09167 29.8787 5.625C28.512 6.14167 27.1704 6.86667 25.8537 7.8C24.5537 8.71667 23.1787 9.775 21.7287 10.975C22.062 11.4583 22.7037 12.1417 23.6537 13.025C24.6037 13.9083 25.887 14.8833 27.5037 15.95C28.487 16.5833 29.1787 17.0667 29.5787 17.4C29.9954 17.75 30.2037 17.9833 30.2037 18.1C30.2037 18.2 30.087 18.2333 29.8537 18.2ZM17.7537 17.35C17.8037 17.4167 17.762 17.45 17.6287 17.45C17.512 17.4667 17.337 17.35 17.1037 17.1C16.8704 16.8667 16.6037 16.4333 16.3037 15.8C16.2204 15.6167 16.162 15.4083 16.1287 15.175C16.0954 14.9417 16.0787 14.6917 16.0787 14.425C16.0787 13.7083 16.1704 12.9 16.3537 12C16.5537 11.0833 16.7704 10.1667 17.0037 9.25C17.2537 8.33333 17.4704 7.5 17.6537 6.75C17.8537 6 17.9537 5.425 17.9537 5.025C17.9537 4.79167 17.9204 4.64167 17.8537 4.575C17.7037 4.375 17.6287 4.19167 17.6287 4.025C17.6287 3.79167 17.7704 3.61667 18.0537 3.5C18.3537 3.38333 18.6954 3.325 19.0787 3.325C19.3954 3.325 19.712 3.36667 20.0287 3.45C20.3454 3.51667 20.612 3.625 20.8287 3.775C20.9454 3.875 21.0037 4.04167 21.0037 4.275C21.0037 4.64167 20.8787 5.15833 20.6287 5.825C20.3954 6.49167 20.0954 7.25 19.7287 8.1C19.3787 8.93333 19.0204 9.80833 18.6537 10.725C18.287 11.625 17.9787 12.5083 17.7287 13.375C17.4954 14.2417 17.3787 15.0333 17.3787 15.75C17.3787 16.3833 17.5037 16.9167 17.7537 17.35Z" fill="url(#paint0_linear_3_7)" fill-opacity="0.88"/>
<defs>
<linearGradient id="paint0_linear_3_7" x1="18" y1="-6" x2="18" y2="23" gradientUnits="userSpaceOnUse">
<stop stop-color="#AAA304" stop-opacity="0.744792"/>
<stop offset="0.223958" stop-color="#99920B" stop-opacity="0.750109"/>
<stop offset="1" stop-color="#8A4C04"/>
</linearGradient>
</defs>
</svg>
