<svg width="72" height="48" viewBox="0 0 72 48" fill="none" xmlns="http://www.w3.org/2000/svg">
<path d="M55 25.5C55 15.835 47.165 8 37.5 8C27.835 8 20 15.835 20 25.5C20 34.2348 26.3995 41.4746 34.7656 42.7874V30.5586H30.3223V25.5H34.7656V21.6445C34.7656 17.2586 37.3782 14.8359 41.3756 14.8359C43.2903 14.8359 45.293 15.1777 45.293 15.1777V19.4844H43.0863C40.9123 19.4844 40.2344 20.8334 40.2344 22.2173V25.5H45.0879L44.312 30.5586H40.2344V42.7874C48.6005 41.4746 55 34.2348 55 25.5Z" fill="#858B9B"/>
<path d="M44.312 30.5586L45.0879 25.5H40.2344V22.2173C40.2344 20.8333 40.9123 19.4844 43.0863 19.4844H45.293V15.1777C45.293 15.1777 43.2903 14.8359 41.3756 14.8359C37.3782 14.8359 34.7656 17.2586 34.7656 21.6445V25.5H30.3223V30.5586H34.7656V42.7874C35.6702 42.9292 36.5844 43.0002 37.5 43C38.4302 43 39.3434 42.9272 40.2344 42.7874V30.5586H44.312Z" fill="white"/>
</svg>
