<svg width="79" height="53" viewBox="0 0 79 53" fill="none" xmlns="http://www.w3.org/2000/svg">
<path d="M34.4032 33.9569V19.0434L47.4284 26.5004L34.4032 33.9569ZM63.3763 14.3507C62.8031 12.179 61.1143 10.4687 58.9703 9.88825C55.084 8.83337 39.4999 8.83337 39.4999 8.83337C39.4999 8.83337 23.9161 8.83337 20.0298 9.88825C17.8858 10.4687 16.197 12.179 15.6238 14.3507C14.5824 18.2871 14.5824 26.5001 14.5824 26.5001C14.5824 26.5001 14.5824 34.7128 15.6238 38.6494C16.197 40.8213 17.8855 42.5314 20.0298 43.1123C23.9161 44.1667 39.4999 44.1667 39.4999 44.1667C39.4999 44.1667 55.084 44.1667 58.9703 43.1123C61.1143 42.5314 62.8031 40.8213 63.3763 38.6494C64.4177 34.7128 64.4177 26.4999 64.4177 26.4999C64.4177 26.4999 64.4177 18.2871 63.3763 14.3507Z" fill="white"/>
</svg>
