<svg width="304" height="38" viewBox="0 0 152 19" fill="none" xmlns="http://www.w3.org/2000/svg">
<path d="M1 18.25C0.883333 18.25 0.775 18.2 0.675 18.1C0.558333 18 0.5 17.8583 0.5 17.675C0.5 17.5417 0.541667 17.375 0.625 17.175C0.708333 16.975 0.858333 16.7583 1.075 16.525C1.45833 15.675 1.81667 14.9833 2.15 14.45C2.5 13.9167 2.89167 13.3417 3.325 12.725C3.10833 12.6917 2.95 12.6167 2.85 12.5C2.75 12.3667 2.7 12.2167 2.7 12.05C2.7 11.7833 2.775 11.5333 2.925 11.3C3.09167 11.05 3.24167 10.925 3.375 10.925C3.575 10.925 3.78333 10.9 4 10.85C4.23333 10.8 4.46667 10.775 4.7 10.775C5.3 9.90833 5.78333 9.19167 6.15 8.625C6.53333 8.05833 6.84167 7.6 7.075 7.25C7.30833 6.9 7.50833 6.60833 7.675 6.375C7.85833 6.14167 8.04167 5.925 8.225 5.725C8.40833 5.50833 8.63333 5.25833 8.9 4.975C9.16667 4.69167 9.51667 4.33333 9.95 3.9C9.73333 3.45 9.625 3.00833 9.625 2.575C9.625 1.975 9.8 1.48333 10.15 1.1C10.5 0.716666 10.8667 0.524999 11.25 0.524999C11.45 0.524999 11.6333 0.583333 11.8 0.7C11.9833 0.799999 12.1333 0.983332 12.25 1.25C12.7167 2.31667 13.0417 3.675 13.225 5.325C13.425 6.975 13.5583 8.725 13.625 10.575C14.875 10.675 15.7417 10.9 16.225 11.25C16.0083 11.3167 15.675 11.3917 15.225 11.475C14.775 11.5417 14.2417 11.6167 13.625 11.7C13.625 12.3667 13.6333 13.0417 13.65 13.725C13.6667 14.4083 13.675 15.0833 13.675 15.75C13.675 16.6833 13.6 17.3333 13.45 17.7C13.3167 18.0667 13.1833 18.25 13.05 18.25C12.8667 18.25 12.775 18.0833 12.775 17.75C12.775 16.6333 12.725 15.5917 12.625 14.625C12.525 13.6417 12.3833 12.725 12.2 11.875C11.3833 11.9583 10.5167 12.05 9.6 12.15C8.7 12.2333 7.8 12.3167 6.9 12.4C6 12.4833 5.16667 12.5667 4.4 12.65C3.86667 13.4833 3.33333 14.3583 2.8 15.275C2.28333 16.1917 1.78333 17.125 1.3 18.075C1.25 18.1917 1.15 18.25 1 18.25ZM5.75 10.675C6.73333 10.5917 7.76667 10.5417 8.85 10.525C9.93333 10.4917 10.9583 10.475 11.925 10.475C11.6417 9.29167 11.3333 8.25 11 7.35C10.6833 6.43333 10.4333 5.65 10.25 5C9.81667 5.43333 9.19167 6.14167 8.375 7.125C7.575 8.10833 6.7 9.29167 5.75 10.675ZM16.6287 17.325C16.4287 17.325 16.2537 17.1917 16.1037 16.925C15.9704 16.6417 15.862 16.325 15.7787 15.975C15.6954 15.6083 15.6537 15.3 15.6537 15.05C15.6537 14.5 15.7287 13.8583 15.8787 13.125C16.0454 12.3917 16.262 11.625 16.5287 10.825C16.7954 10.0083 17.087 9.20833 17.4037 8.425C17.7204 7.64167 18.0454 6.91667 18.3787 6.25C18.712 5.56667 19.012 5.00833 19.2787 4.575C19.512 4.19167 19.8454 3.93333 20.2787 3.8C20.7287 3.65 21.1537 3.575 21.5537 3.575C21.9537 3.575 22.2704 3.625 22.5037 3.725C22.737 3.825 22.8037 3.94167 22.7037 4.075C22.187 4.74167 21.6454 5.525 21.0787 6.425C20.512 7.325 19.962 8.275 19.4287 9.275C18.912 10.275 18.4454 11.2667 18.0287 12.25C17.6287 13.2333 17.3204 14.15 17.1037 15C16.887 15.85 16.812 16.5583 16.8787 17.125C16.8787 17.2583 16.7954 17.325 16.6287 17.325ZM23.7434 7.825C23.5767 7.825 23.4517 7.80833 23.3684 7.775C23.285 7.725 23.2017 7.66667 23.1184 7.6C23.0184 7.5 22.9017 7.38333 22.7684 7.25C22.635 7.1 22.5684 6.975 22.5684 6.875C22.5684 6.79167 22.6184 6.74167 22.7184 6.725C23.585 6.45833 24.235 6.325 24.6684 6.325C24.935 6.325 25.135 6.36667 25.2684 6.45C25.4184 6.51667 25.5434 6.61667 25.6434 6.75C25.6767 6.76667 25.735 6.85 25.8184 7C25.9017 7.13333 25.9434 7.21667 25.9434 7.25C25.9434 7.36667 25.8017 7.44167 25.5184 7.475C25.235 7.50833 25.0017 7.54167 24.8184 7.575C24.635 7.64167 24.4517 7.7 24.2684 7.75C24.1017 7.8 23.9267 7.825 23.7434 7.825ZM23.2934 16.75C23.1934 16.75 23.0767 16.6583 22.9434 16.475C22.81 16.2917 22.6767 16.0917 22.5434 15.875C22.21 15.2917 21.935 14.6917 21.7184 14.075C21.5017 13.4583 21.3934 12.8667 21.3934 12.3C21.3934 11.7833 21.4934 11.3 21.6934 10.85C21.8934 10.4 22.21 10.0167 22.6434 9.7C22.8934 9.5 23.2517 9.4 23.7184 9.4C24.0017 9.4 24.2517 9.45833 24.4684 9.575C24.685 9.675 24.7934 9.86667 24.7934 10.15C24.7934 10.4167 24.6767 10.7667 24.4434 11.2C24.2267 11.6333 24.0267 12.1 23.8434 12.6C23.7434 12.9167 23.66 13.2833 23.5934 13.7C23.5434 14.1167 23.5267 14.5917 23.5434 15.125C23.5434 15.2417 23.5434 15.35 23.5434 15.45C23.56 15.5333 23.5684 15.6167 23.5684 15.7C23.5684 16.0833 23.5434 16.3583 23.4934 16.525C23.4434 16.675 23.3767 16.75 23.2934 16.75ZM28.8934 17.3C28.4267 17.3 27.9434 17.2667 27.4434 17.2C26.96 17.15 26.5517 17.05 26.2184 16.9C25.9017 16.7333 25.7434 16.5083 25.7434 16.225C25.7434 16.075 25.8017 15.9583 25.9184 15.875C26.0517 15.775 26.2017 15.725 26.3684 15.725C26.4517 15.725 26.5934 15.7417 26.7934 15.775C26.9934 15.8083 27.135 15.8333 27.2184 15.85C27.7184 15.9 28.3434 15.925 29.0934 15.925C29.7434 15.925 30.385 15.9 31.0184 15.85C31.6517 15.8 32.1767 15.725 32.5934 15.625C33.0267 15.525 33.2434 15.4 33.2434 15.25C33.2434 15.1167 33.11 14.9833 32.8434 14.85C32.5767 14.7 32.3267 14.575 32.0934 14.475C31.6434 14.2583 31.1434 14.0417 30.5934 13.825C30.0434 13.6083 29.535 13.4167 29.0684 13.25C28.6184 13.0667 28.3184 12.9417 28.1684 12.875C27.6517 12.6417 27.2017 12.3917 26.8184 12.125C26.435 11.8583 26.2434 11.5667 26.2434 11.25C26.2434 11 26.4184 10.675 26.7684 10.275C27.185 9.825 27.7017 9.45833 28.3184 9.175C28.9517 8.875 29.6267 8.65 30.3434 8.5C31.0767 8.35 31.7934 8.275 32.4934 8.275C33.0267 8.275 33.5267 8.31667 33.9934 8.4C34.4767 8.48333 34.8934 8.60833 35.2434 8.775C35.4767 8.89167 35.685 9.04167 35.8684 9.225C36.0684 9.39167 36.1684 9.54167 36.1684 9.675C36.1684 9.775 36.1184 9.85 36.0184 9.9C35.935 9.95 35.8267 9.975 35.6934 9.975C35.6267 9.975 35.56 9.975 35.4934 9.975C35.4434 9.95833 35.3934 9.94167 35.3434 9.925C34.9934 9.79167 34.635 9.68333 34.2684 9.6C33.9017 9.51667 33.5267 9.475 33.1434 9.475C32.6267 9.475 32.0684 9.59167 31.4684 9.825C30.885 10.0417 30.385 10.325 29.9684 10.675C29.5684 11.025 29.3684 11.3833 29.3684 11.75C29.3684 11.9333 29.4434 12.1333 29.5934 12.35C29.7434 12.55 30.0017 12.7667 30.3684 13C30.985 13.3667 31.61 13.675 32.2434 13.925C32.8767 14.1583 33.4017 14.3833 33.8184 14.6C34.4517 14.95 34.7684 15.3417 34.7684 15.775C34.7684 16.0917 34.5684 16.35 34.1684 16.55C33.7684 16.75 33.26 16.9 32.6434 17C32.0267 17.1167 31.3767 17.1917 30.6934 17.225C30.0267 17.275 29.4267 17.3 28.8934 17.3ZM46.7361 17.4C46.5695 17.4 46.5111 17.2417 46.5611 16.925C46.6445 16.4417 46.7028 15.9583 46.7361 15.475C46.7861 14.975 46.8111 14.5417 46.8111 14.175C46.8111 13.825 46.7861 13.5417 46.7361 13.325C46.7028 13.0917 46.6278 12.975 46.5111 12.975C46.4611 12.975 46.3861 13 46.2861 13.05C46.2028 13.1 46.0528 13.2 45.8361 13.35C45.4695 13.6167 44.9945 13.9083 44.4111 14.225C43.8445 14.5417 43.2278 14.8583 42.5611 15.175C41.8945 15.4917 41.2445 15.7917 40.6111 16.075C39.9778 16.3583 39.4111 16.6167 38.9111 16.85C38.6278 16.9667 38.3028 17.025 37.9361 17.025C37.5195 17.025 37.1361 16.9583 36.7861 16.825C36.4528 16.675 36.2861 16.45 36.2861 16.15C36.2861 15.7333 36.4361 15.175 36.7361 14.475C37.0361 13.775 37.4945 13.0167 38.1111 12.2C38.7278 11.3667 39.4945 10.5667 40.4111 9.8C41.0278 9.28333 41.6778 8.875 42.3611 8.575C43.0445 8.275 43.7861 8.125 44.5861 8.125C45.0028 8.125 45.4445 8.175 45.9111 8.275C46.3778 8.375 46.7695 8.54167 47.0861 8.775C47.4195 9.00833 47.5861 9.33333 47.5861 9.75C47.5861 10.05 47.5111 10.2667 47.3611 10.4C47.2278 10.5167 47.0861 10.575 46.9361 10.575C46.7361 10.575 46.4861 10.4917 46.1861 10.325C45.9028 10.1583 45.5195 10.075 45.0361 10.075C44.6861 10.075 44.3278 10.1333 43.9611 10.25C43.5945 10.35 43.1861 10.525 42.7361 10.775C41.9695 11.2083 41.2861 11.6833 40.6861 12.2C40.0861 12.7 39.6111 13.1917 39.2611 13.675C38.9278 14.1583 38.7611 14.575 38.7611 14.925C38.7611 15.175 38.8445 15.375 39.0111 15.525C39.1945 15.675 39.4195 15.75 39.6861 15.75C40.1028 15.75 40.5861 15.625 41.1361 15.375C41.6861 15.1083 42.2111 14.8417 42.7111 14.575C43.7445 14.025 44.5278 13.5583 45.0611 13.175C45.6111 12.7917 46.0278 12.4917 46.3111 12.275C46.6111 12.0417 46.8945 11.8833 47.1611 11.8C47.2111 11.7833 47.3028 11.775 47.4361 11.775C47.7028 11.775 47.9945 11.8333 48.3111 11.95C48.6445 12.05 48.8028 12.15 48.7861 12.25C48.7861 12.55 48.6861 12.9 48.4861 13.3C48.2861 13.6833 48.1195 14.1417 47.9861 14.675C47.9028 15.0417 47.8445 15.375 47.8111 15.675C47.7945 15.9583 47.7111 16.3417 47.5611 16.825C47.5445 16.8917 47.4361 17 47.2361 17.15C47.0361 17.3167 46.8695 17.4 46.7361 17.4ZM70.884 18.2C70.2673 18.1167 69.5757 17.8833 68.809 17.5C68.059 17.1167 67.3007 16.6667 66.534 16.15C65.7673 15.6333 65.0507 15.125 64.384 14.625C63.7173 14.1083 63.1673 13.6667 62.734 13.3C62.3007 12.9333 62.0507 12.7167 61.984 12.65C61.7173 12.3667 61.4757 12.0833 61.259 11.8C61.0423 11.5 60.934 11.2083 60.934 10.925C60.934 10.7417 60.984 10.5667 61.084 10.4C61.1673 10.2667 61.4423 9.96667 61.909 9.5C62.3923 9.03333 63.009 8.48333 63.759 7.85C64.509 7.2 65.334 6.53333 66.234 5.85C67.134 5.16667 68.0507 4.525 68.984 3.925C69.9173 3.325 70.809 2.84167 71.659 2.475C72.5257 2.09167 73.2757 1.9 73.909 1.9C74.2423 1.9 74.534 2.04167 74.784 2.325C75.0507 2.60833 75.259 2.94167 75.409 3.325C75.5757 3.69167 75.659 4.01667 75.659 4.3C75.659 4.65 75.5423 4.825 75.309 4.825C73.7423 4.825 72.2757 5.09167 70.909 5.625C69.5423 6.14167 68.2007 6.86667 66.884 7.8C65.584 8.71667 64.209 9.775 62.759 10.975C63.0923 11.4583 63.734 12.1417 64.684 13.025C65.634 13.9083 66.9173 14.8833 68.534 15.95C69.5173 16.5833 70.209 17.0667 70.609 17.4C71.0257 17.75 71.234 17.9833 71.234 18.1C71.234 18.2 71.1173 18.2333 70.884 18.2ZM58.784 17.35C58.834 17.4167 58.7923 17.45 58.659 17.45C58.5423 17.4667 58.3673 17.35 58.134 17.1C57.9007 16.8667 57.634 16.4333 57.334 15.8C57.2507 15.6167 57.1923 15.4083 57.159 15.175C57.1257 14.9417 57.109 14.6917 57.109 14.425C57.109 13.7083 57.2007 12.9 57.384 12C57.584 11.0833 57.8007 10.1667 58.034 9.25C58.284 8.33333 58.5007 7.5 58.684 6.75C58.884 6 58.984 5.425 58.984 5.025C58.984 4.79167 58.9507 4.64167 58.884 4.575C58.734 4.375 58.659 4.19167 58.659 4.025C58.659 3.79167 58.8007 3.61667 59.084 3.5C59.384 3.38333 59.7257 3.325 60.109 3.325C60.4257 3.325 60.7423 3.36667 61.059 3.45C61.3757 3.51667 61.6423 3.625 61.859 3.775C61.9757 3.875 62.034 4.04167 62.034 4.275C62.034 4.64167 61.909 5.15833 61.659 5.825C61.4257 6.49167 61.1257 7.25 60.759 8.1C60.409 8.93333 60.0507 9.80833 59.684 10.725C59.3173 11.625 59.009 12.5083 58.759 13.375C58.5257 14.2417 58.409 15.0333 58.409 15.75C58.409 16.3833 58.534 16.9167 58.784 17.35ZM74.8473 17.05C74.0639 17.05 73.4139 16.9 72.8973 16.6C72.3806 16.2833 71.9889 15.8833 71.7223 15.4C71.4723 14.9167 71.3473 14.4333 71.3473 13.95C71.3473 13.4 71.4973 12.875 71.7973 12.375C72.0973 11.8583 72.4889 11.3917 72.9723 10.975C73.4723 10.5583 73.9889 10.2333 74.5223 10C74.7889 9.88333 75.0223 9.8 75.2223 9.75C75.4389 9.68333 75.6723 9.65 75.9223 9.65C76.2223 9.65 76.5806 9.69167 76.9973 9.775C77.4306 9.84167 77.8473 9.95833 78.2473 10.125C78.6473 10.275 78.9389 10.4917 79.1223 10.775C79.1723 10.8583 79.3389 10.95 79.6223 11.05C79.9056 11.15 80.2223 11.275 80.5723 11.425C80.9223 11.575 81.2223 11.775 81.4723 12.025C81.7389 12.2583 81.8723 12.5667 81.8723 12.95C81.8723 13.4167 81.6389 13.8917 81.1723 14.375C80.7056 14.8583 80.1056 15.3083 79.3723 15.725C78.6389 16.125 77.8723 16.45 77.0723 16.7C76.2723 16.9333 75.5306 17.05 74.8473 17.05ZM74.6723 16.25C75.1556 16.25 75.6889 16.1667 76.2723 16C76.8556 15.8333 77.4139 15.6083 77.9473 15.325C78.4806 15.0417 78.9139 14.725 79.2473 14.375C79.5973 14.0083 79.7723 13.6333 79.7723 13.25C79.7723 12.95 79.6556 12.7167 79.4223 12.55C79.2056 12.3667 78.9306 12.2167 78.5973 12.1C78.4806 12.0667 78.3223 12.0833 78.1223 12.15C77.9223 12.2 77.6889 12.225 77.4223 12.225C77.1056 12.225 76.7723 12.1167 76.4223 11.9C76.0723 11.6833 75.8973 11.4167 75.8973 11.1C75.8973 11 75.9056 10.9083 75.9223 10.825C75.9389 10.7417 75.9556 10.675 75.9723 10.625C75.3723 10.7583 74.7973 11.0083 74.2473 11.375C73.7139 11.7417 73.2723 12.1833 72.9223 12.7C72.5723 13.2167 72.3973 13.7833 72.3973 14.4C72.3973 15.0167 72.6223 15.4833 73.0723 15.8C73.5389 16.1 74.0723 16.25 74.6723 16.25ZM83.558 16.35C83.258 16.35 83.1163 16.2417 83.133 16.025C83.2163 15.6083 83.283 15.1 83.333 14.5C83.3997 13.8833 83.433 13.2917 83.433 12.725C83.433 12.1583 83.383 11.675 83.283 11.275C83.1997 10.8583 83.033 10.65 82.783 10.65C82.4163 10.6333 82.233 10.5583 82.233 10.425C82.233 10.325 82.3247 10.2333 82.508 10.15C82.758 10.0167 83.0413 9.9 83.358 9.8C83.6747 9.7 83.9913 9.65 84.308 9.65C84.4913 9.65 84.6747 9.675 84.858 9.725C85.0413 9.75833 85.2163 9.825 85.383 9.925C85.583 10.0417 85.708 10.2167 85.758 10.45C85.8247 10.6833 85.8663 10.8917 85.883 11.075C85.9163 11.275 85.933 11.375 85.933 11.375C85.9663 11.375 85.9997 11.3333 86.033 11.25C86.083 11.1667 86.1247 11.1 86.158 11.05C86.508 10.5167 86.9413 9.99167 87.458 9.475C87.9913 8.94167 88.5497 8.5 89.133 8.15C89.7163 7.78333 90.2413 7.6 90.708 7.6C91.2247 7.6 91.608 7.76667 91.858 8.1C92.108 8.43333 92.233 8.75 92.233 9.05C92.233 9.43333 92.058 9.625 91.708 9.625C91.4413 9.625 91.2497 9.55833 91.133 9.425C91.033 9.275 90.9247 9.13333 90.808 9C90.708 8.86667 90.533 8.8 90.283 8.8C89.8497 8.8 89.408 8.96667 88.958 9.3C88.508 9.61667 88.1247 9.96667 87.808 10.35C87.2913 10.9667 86.858 11.7 86.508 12.55C86.1747 13.3833 85.9497 14.2 85.833 15C85.7997 15.2333 85.6413 15.4583 85.358 15.675C85.0913 15.875 84.783 16.0417 84.433 16.175C84.0997 16.2917 83.808 16.35 83.558 16.35ZM92.3227 17.15C92.256 17.15 92.1393 17.1 91.9727 17C91.806 16.9167 91.6477 16.8 91.4977 16.65C91.3643 16.4833 91.2977 16.3167 91.2977 16.15C91.2977 15.6833 91.3727 15.1083 91.5227 14.425C91.6893 13.725 91.906 12.9917 92.1727 12.225C92.4393 11.4417 92.7227 10.7167 93.0227 10.05C93.156 9.76667 93.3393 9.575 93.5727 9.475C93.806 9.35833 94.056 9.3 94.3227 9.3C94.706 9.3 95.0643 9.4 95.3977 9.6C95.731 9.8 95.8977 10.0583 95.8977 10.375C95.8977 10.5417 95.8393 10.7083 95.7227 10.875C95.6393 10.9917 95.5393 11.1583 95.4227 11.375C95.306 11.575 95.206 11.7583 95.1227 11.925C95.0227 12.125 94.9977 12.225 95.0477 12.225C95.0643 12.225 95.1477 12.15 95.2977 12C95.631 11.6833 96.081 11.3583 96.6477 11.025C97.231 10.675 97.831 10.3833 98.4477 10.15C99.0643 9.9 99.5977 9.775 100.048 9.775C100.714 9.775 101.256 9.96667 101.673 10.35C102.106 10.7167 102.423 11.1917 102.623 11.775C102.823 12.3583 102.923 12.9583 102.923 13.575C102.923 14.675 102.673 15.55 102.173 16.2C102.106 16.3 101.973 16.4417 101.773 16.625C101.573 16.8083 101.423 16.9 101.323 16.9C101.273 16.9 101.248 16.8667 101.248 16.8C101.248 16.7667 101.248 16.7333 101.248 16.7C101.264 16.6667 101.281 16.625 101.298 16.575C101.431 16.2083 101.531 15.8083 101.598 15.375C101.681 14.9417 101.723 14.5083 101.723 14.075C101.723 13.525 101.639 13.0083 101.473 12.525C101.323 12.0417 101.056 11.65 100.673 11.35C100.306 11.05 99.7977 10.9 99.1477 10.9C98.131 10.9 97.2477 11.2167 96.4977 11.85C95.7643 12.4833 95.031 13.3667 94.2977 14.5C93.731 15.3667 93.306 16.025 93.0227 16.475C92.7393 16.925 92.506 17.15 92.3227 17.15ZM107.561 7.825C107.394 7.825 107.269 7.80833 107.186 7.775C107.102 7.725 107.019 7.66667 106.936 7.6C106.836 7.5 106.719 7.38333 106.586 7.25C106.452 7.1 106.386 6.975 106.386 6.875C106.386 6.79167 106.436 6.74167 106.536 6.725C107.402 6.45833 108.052 6.325 108.486 6.325C108.752 6.325 108.952 6.36667 109.086 6.45C109.236 6.51667 109.361 6.61667 109.461 6.75C109.494 6.76667 109.552 6.85 109.636 7C109.719 7.13333 109.761 7.21667 109.761 7.25C109.761 7.36667 109.619 7.44167 109.336 7.475C109.052 7.50833 108.819 7.54167 108.636 7.575C108.452 7.64167 108.269 7.7 108.086 7.75C107.919 7.8 107.744 7.825 107.561 7.825ZM107.111 16.75C107.011 16.75 106.894 16.6583 106.761 16.475C106.627 16.2917 106.494 16.0917 106.361 15.875C106.027 15.2917 105.752 14.6917 105.536 14.075C105.319 13.4583 105.211 12.8667 105.211 12.3C105.211 11.7833 105.311 11.3 105.511 10.85C105.711 10.4 106.027 10.0167 106.461 9.7C106.711 9.5 107.069 9.4 107.536 9.4C107.819 9.4 108.069 9.45833 108.286 9.575C108.502 9.675 108.611 9.86667 108.611 10.15C108.611 10.4167 108.494 10.7667 108.261 11.2C108.044 11.6333 107.844 12.1 107.661 12.6C107.561 12.9167 107.477 13.2833 107.411 13.7C107.361 14.1167 107.344 14.5917 107.361 15.125C107.361 15.2417 107.361 15.35 107.361 15.45C107.377 15.5333 107.386 15.6167 107.386 15.7C107.386 16.0833 107.361 16.3583 107.311 16.525C107.261 16.675 107.194 16.75 107.111 16.75ZM111.336 17.325C111.136 17.325 110.961 17.1917 110.811 16.925C110.677 16.6417 110.569 16.325 110.486 15.975C110.402 15.6083 110.361 15.3 110.361 15.05C110.361 14.5 110.436 13.8583 110.586 13.125C110.752 12.3917 110.969 11.625 111.236 10.825C111.502 10.0083 111.794 9.20833 112.111 8.425C112.427 7.64167 112.752 6.91667 113.086 6.25C113.419 5.56667 113.719 5.00833 113.986 4.575C114.219 4.19167 114.552 3.93333 114.986 3.8C115.436 3.65 115.861 3.575 116.261 3.575C116.661 3.575 116.977 3.625 117.211 3.725C117.444 3.825 117.511 3.94167 117.411 4.075C116.894 4.74167 116.352 5.525 115.786 6.425C115.219 7.325 114.669 8.275 114.136 9.275C113.619 10.275 113.152 11.2667 112.736 12.25C112.336 13.2333 112.027 14.15 111.811 15C111.594 15.85 111.519 16.5583 111.586 17.125C111.586 17.2583 111.502 17.325 111.336 17.325ZM119.051 17.05C118.268 17.05 117.618 16.9 117.101 16.6C116.585 16.2833 116.193 15.8833 115.926 15.4C115.676 14.9167 115.551 14.4333 115.551 13.95C115.551 13.4 115.701 12.875 116.001 12.375C116.301 11.8583 116.693 11.3917 117.176 10.975C117.676 10.5583 118.193 10.2333 118.726 10C118.993 9.88333 119.226 9.8 119.426 9.75C119.643 9.68333 119.876 9.65 120.126 9.65C120.426 9.65 120.785 9.69167 121.201 9.775C121.635 9.84167 122.051 9.95833 122.451 10.125C122.851 10.275 123.143 10.4917 123.326 10.775C123.376 10.8583 123.543 10.95 123.826 11.05C124.11 11.15 124.426 11.275 124.776 11.425C125.126 11.575 125.426 11.775 125.676 12.025C125.943 12.2583 126.076 12.5667 126.076 12.95C126.076 13.4167 125.843 13.8917 125.376 14.375C124.91 14.8583 124.31 15.3083 123.576 15.725C122.843 16.125 122.076 16.45 121.276 16.7C120.476 16.9333 119.735 17.05 119.051 17.05ZM118.876 16.25C119.36 16.25 119.893 16.1667 120.476 16C121.06 15.8333 121.618 15.6083 122.151 15.325C122.685 15.0417 123.118 14.725 123.451 14.375C123.801 14.0083 123.976 13.6333 123.976 13.25C123.976 12.95 123.86 12.7167 123.626 12.55C123.41 12.3667 123.135 12.2167 122.801 12.1C122.685 12.0667 122.526 12.0833 122.326 12.15C122.126 12.2 121.893 12.225 121.626 12.225C121.31 12.225 120.976 12.1167 120.626 11.9C120.276 11.6833 120.101 11.4167 120.101 11.1C120.101 11 120.11 10.9083 120.126 10.825C120.143 10.7417 120.16 10.675 120.176 10.625C119.576 10.7583 119.001 11.0083 118.451 11.375C117.918 11.7417 117.476 12.1833 117.126 12.7C116.776 13.2167 116.601 13.7833 116.601 14.4C116.601 15.0167 116.826 15.4833 117.276 15.8C117.743 16.1 118.276 16.25 118.876 16.25ZM131.362 17.05C131.179 17.05 130.995 16.975 130.812 16.825C130.629 16.675 130.47 16.4917 130.337 16.275C129.854 15.4417 129.42 14.625 129.037 13.825C128.67 13.0083 128.487 12.0667 128.487 11C128.487 10.8833 128.487 10.7667 128.487 10.65C128.487 10.5167 128.495 10.3917 128.512 10.275C128.545 10.1083 128.695 9.88333 128.962 9.6C129.245 9.3 129.604 9.15 130.037 9.15C130.187 9.15 130.337 9.175 130.487 9.225C130.637 9.25833 130.795 9.33333 130.962 9.45C131.112 9.55 131.187 9.79167 131.187 10.175C131.204 10.5417 131.22 10.9667 131.237 11.45C131.254 11.9333 131.32 12.3917 131.437 12.825C131.554 13.2583 131.787 13.5833 132.137 13.8C133.32 12.4167 134.387 11.3667 135.337 10.65C136.287 9.91667 137.079 9.31667 137.712 8.85C137.945 8.68333 138.154 8.56667 138.337 8.5C138.537 8.43333 138.704 8.4 138.837 8.4C139.087 8.4 139.212 8.48333 139.212 8.65C139.212 8.73333 139.162 8.83333 139.062 8.95C138.962 9.06667 138.795 9.19167 138.562 9.325C137.629 9.875 136.745 10.4583 135.912 11.075C135.095 11.6917 134.354 12.4333 133.687 13.3C133.02 14.15 132.454 15.2167 131.987 16.5C131.837 16.8667 131.629 17.05 131.362 17.05ZM149.573 17.4C149.406 17.4 149.348 17.2417 149.398 16.925C149.481 16.4417 149.54 15.9583 149.573 15.475C149.623 14.975 149.648 14.5417 149.648 14.175C149.648 13.825 149.623 13.5417 149.573 13.325C149.54 13.0917 149.465 12.975 149.348 12.975C149.298 12.975 149.223 13 149.123 13.05C149.04 13.1 148.89 13.2 148.673 13.35C148.306 13.6167 147.831 13.9083 147.248 14.225C146.681 14.5417 146.065 14.8583 145.398 15.175C144.731 15.4917 144.081 15.7917 143.448 16.075C142.815 16.3583 142.248 16.6167 141.748 16.85C141.465 16.9667 141.14 17.025 140.773 17.025C140.356 17.025 139.973 16.9583 139.623 16.825C139.29 16.675 139.123 16.45 139.123 16.15C139.123 15.7333 139.273 15.175 139.573 14.475C139.873 13.775 140.331 13.0167 140.948 12.2C141.565 11.3667 142.331 10.5667 143.248 9.8C143.865 9.28333 144.515 8.875 145.198 8.575C145.881 8.275 146.623 8.125 147.423 8.125C147.84 8.125 148.281 8.175 148.748 8.275C149.215 8.375 149.606 8.54167 149.923 8.775C150.256 9.00833 150.423 9.33333 150.423 9.75C150.423 10.05 150.348 10.2667 150.198 10.4C150.065 10.5167 149.923 10.575 149.773 10.575C149.573 10.575 149.323 10.4917 149.023 10.325C148.74 10.1583 148.356 10.075 147.873 10.075C147.523 10.075 147.165 10.1333 146.798 10.25C146.431 10.35 146.023 10.525 145.573 10.775C144.806 11.2083 144.123 11.6833 143.523 12.2C142.923 12.7 142.448 13.1917 142.098 13.675C141.765 14.1583 141.598 14.575 141.598 14.925C141.598 15.175 141.681 15.375 141.848 15.525C142.031 15.675 142.256 15.75 142.523 15.75C142.94 15.75 143.423 15.625 143.973 15.375C144.523 15.1083 145.048 14.8417 145.548 14.575C146.581 14.025 147.365 13.5583 147.898 13.175C148.448 12.7917 148.865 12.4917 149.148 12.275C149.448 12.0417 149.731 11.8833 149.998 11.8C150.048 11.7833 150.14 11.775 150.273 11.775C150.54 11.775 150.831 11.8333 151.148 11.95C151.481 12.05 151.64 12.15 151.623 12.25C151.623 12.55 151.523 12.9 151.323 13.3C151.123 13.6833 150.956 14.1417 150.823 14.675C150.74 15.0417 150.681 15.375 150.648 15.675C150.631 15.9583 150.548 16.3417 150.398 16.825C150.381 16.8917 150.273 17 150.073 17.15C149.873 17.3167 149.706 17.4 149.573 17.4Z" fill="url(#paint0_linear_3_6)" fill-opacity="0.88"/>
<defs>
<linearGradient id="paint0_linear_3_6" x1="102.5" y1="-6" x2="102.5" y2="27" gradientUnits="userSpaceOnUse">
<stop stop-color="#AAA304" stop-opacity="0.744792"/>
<stop offset="0.223958" stop-color="#99920B" stop-opacity="0.750109"/>
<stop offset="1" stop-color="#8A4C04"/>
</linearGradient>
</defs>
</svg>
