<svg width="35" height="35" viewBox="0 0 29 29" fill="none" xmlns="http://www.w3.org/2000/svg">
<path d="M28.8679 14.6887C28.8679 6.84731 22.5112 0.490601 14.6698 0.490601C6.82839 0.490601 0.47168 6.84731 0.47168 14.6887C0.47168 21.7754 5.66372 27.6492 12.4513 28.7144V18.7929H8.84636V14.6887H12.4513V11.5607C12.4513 8.00229 14.571 6.03675 17.8142 6.03675C19.3676 6.03675 20.9924 6.31405 20.9924 6.31405V9.80812H19.202C17.4383 9.80812 16.8883 10.9026 16.8883 12.0254V14.6887H20.826L20.1965 18.7929H16.8882V28.7144C23.6759 27.6492 28.8679 21.7754 28.8679 14.6887Z" fill="#858B9B"/>
<path d="M20.1966 18.7929L20.8261 14.6887H16.8883V12.0254C16.8883 10.9026 17.4384 9.80811 19.2021 9.80811H20.9925V6.31404C20.9925 6.31404 19.3677 6.03674 17.8143 6.03674C14.5711 6.03674 12.4514 8.00228 12.4514 11.5607V14.6887H8.84644V18.7929H12.4514V28.7144C13.1853 28.8294 13.927 28.887 14.6699 28.8868C15.4246 28.8868 16.1655 28.8278 16.8883 28.7144V18.7929H20.1966Z" fill="white"/>
</svg>
