<svg width="35" height="35" viewBox="0 0 29 29" fill="none" xmlns="http://www.w3.org/2000/svg">
<path d="M14.7768 0.0314941C10.9208 0.0314941 10.4372 0.0476967 8.92285 0.116107C7.41162 0.184393 6.37953 0.422156 5.47639 0.769736C4.54274 1.12912 3.75095 1.61001 2.96165 2.39179C2.1723 3.17358 1.6868 3.95791 1.324 4.88267C0.972989 5.77716 0.733024 6.79943 0.663998 8.29626C0.594929 9.79623 0.578613 10.2751 0.578613 14.0944C0.578613 17.9136 0.594929 18.3925 0.663998 19.8925C0.733024 21.3893 0.972989 22.4116 1.324 23.3061C1.68684 24.2309 2.17235 25.0151 2.96165 25.797C3.75099 26.5788 4.54274 27.0597 5.47639 27.419C6.37953 27.7666 7.41162 28.0043 8.92285 28.0727C10.4372 28.1411 10.9208 28.1573 14.7768 28.1573C18.6327 28.1573 19.1162 28.1411 20.6306 28.0727C22.1418 28.0044 23.1739 27.7666 24.077 27.419C25.0107 27.0597 25.8025 26.5788 26.5918 25.797C27.3811 25.0151 27.8667 24.2309 28.2295 23.3061C28.5804 22.4116 28.8205 21.3893 28.8894 19.8925C28.9585 18.3925 28.9748 17.9136 28.9748 14.0944C28.9748 10.2751 28.9585 9.79623 28.8894 8.29626C28.8205 6.79943 28.5804 5.77716 28.2295 4.88267C27.8667 3.95791 27.3811 3.17358 26.5918 2.39179C25.8025 1.61001 25.0107 1.12912 24.077 0.769736C23.1739 0.422156 22.1418 0.184393 20.6306 0.116107C19.1162 0.0476967 18.6327 0.0314941 14.7768 0.0314941ZM14.7768 2.56533C18.5678 2.56533 19.0168 2.57969 20.514 2.64735C21.8983 2.70986 22.6501 2.93895 23.1503 3.13154C23.8131 3.38668 24.2861 3.69139 24.7829 4.18349C25.2798 4.6756 25.5874 5.14409 25.845 5.80048C26.0394 6.29602 26.2707 7.04067 26.3338 8.41177C26.4021 9.89466 26.4166 10.3395 26.4166 14.0944C26.4166 17.8493 26.4021 18.2941 26.3338 19.777C26.2707 21.1481 26.0394 21.8928 25.845 22.3883C25.5874 23.0447 25.2798 23.5132 24.7829 24.0052C24.2861 24.4974 23.8131 24.8021 23.1504 25.0572C22.6501 25.2498 21.8983 25.4789 20.514 25.5414C19.0171 25.6091 18.5681 25.6234 14.7767 25.6234C10.9854 25.6234 10.5364 25.6091 9.03947 25.5414C7.65514 25.4789 6.90338 25.2498 6.40311 25.0572C5.74033 24.8021 5.26737 24.4974 4.77058 24.0052C4.27374 23.5132 3.96606 23.0447 3.70847 22.3883C3.51403 21.8928 3.28277 21.1481 3.21962 19.777C3.15131 18.2941 3.13681 17.8493 3.13681 14.0944C3.13681 10.3395 3.15131 9.89466 3.21962 8.41177C3.28277 7.04063 3.51403 6.29602 3.70847 5.80052C3.96606 5.14405 4.27374 4.6756 4.77053 4.18353C5.26737 3.69139 5.74037 3.38668 6.40307 3.13154C6.90337 2.93895 7.65518 2.70986 9.03947 2.64735C10.5366 2.57969 10.9857 2.56533 14.7767 2.56533" fill="white"/>
<path d="M14.7768 18.7821C12.1629 18.7821 10.044 16.6833 10.044 14.0944C10.044 11.5055 12.1629 9.40676 14.7768 9.40676C17.3906 9.40676 19.5095 11.5055 19.5095 14.0944C19.5095 16.6833 17.3906 18.7821 14.7768 18.7821ZM14.7768 6.87293C10.7501 6.87293 7.48584 10.1061 7.48584 14.0944C7.48584 18.0827 10.7501 21.3159 14.7768 21.3159C18.8034 21.3159 22.0677 18.0827 22.0677 14.0944C22.0677 10.1061 18.8034 6.87293 14.7768 6.87293M24.0595 6.5876C24.0595 7.51965 23.2967 8.27514 22.3557 8.27514C21.4148 8.27514 20.652 7.51965 20.652 6.5876C20.652 5.6556 21.4148 4.90002 22.3557 4.90002C23.2967 4.90002 24.0595 5.6556 24.0595 6.5876" fill="white"/>
</svg>
