<svg width="49" height="35" viewBox="0 0 42 29" fill="none" xmlns="http://www.w3.org/2000/svg">
<path d="M16.78 20.5499V8.45021L27.3476 14.5002L16.78 20.5499ZM40.2864 4.64297C39.8214 2.88101 38.4513 1.49339 36.7118 1.02247C33.5588 0.166626 20.9151 0.166626 20.9151 0.166626C20.9151 0.166626 8.2716 0.166626 5.11856 1.02247C3.37905 1.49339 2.00895 2.88101 1.54392 4.64297C0.698975 7.83659 0.698975 14.5 0.698975 14.5C0.698975 14.5 0.698975 21.1632 1.54392 24.357C2.00895 26.1191 3.37888 27.5065 5.11856 27.9778C8.2716 28.8333 20.9151 28.8333 20.9151 28.8333C20.9151 28.8333 33.5588 28.8333 36.7118 27.9778C38.4513 27.5065 39.8214 26.1191 40.2864 24.357C41.1314 21.1632 41.1314 14.4999 41.1314 14.4999C41.1314 14.4999 41.1314 7.83659 40.2864 4.64297Z" fill="white"/>
</svg>
